<svg width="33" height="33" viewBox="0 0 33 33" fill="none" xmlns="http://www.w3.org/2000/svg">
<path fill-rule="evenodd" clip-rule="evenodd" d="M27.355 18.2775C27.1159 18.1938 26.7303 18.1541 26.1052 18.2426C26.0703 18.2475 26.0352 18.25 26 18.25H5.49999C5.49052 18.25 5.48105 18.2498 5.47159 18.2495C5.03241 18.2328 4.77228 18.3008 4.60947 18.3892C4.45892 18.471 4.32534 18.6057 4.20538 18.8639C4.07844 19.1371 3.97881 19.5242 3.9043 20.0684C3.83041 20.6081 3.78668 21.2572 3.74911 22.0361C3.72916 22.4499 3.37759 22.7691 2.96386 22.7491C2.55012 22.7292 2.2309 22.3776 2.25086 21.9639C2.28869 21.1794 2.33472 20.4744 2.41817 19.8649C2.501 19.2599 2.62629 18.7026 2.84506 18.2318C3.07081 17.746 3.40373 17.3371 3.8937 17.071C4.36751 16.8137 4.91675 16.7291 5.51363 16.75H25.9485C26.6708 16.6528 27.3077 16.6717 27.8505 16.8617C28.436 17.0666 28.8496 17.4487 29.1255 17.946C29.3863 18.4163 29.5156 18.9735 29.5945 19.5419C29.6741 20.1146 29.7109 20.7701 29.7489 21.4587C29.7717 21.8723 29.4549 22.2261 29.0413 22.2489C28.6277 22.2717 28.2739 21.9549 28.2511 21.5413C28.2123 20.8369 28.1781 20.2474 28.1088 19.7483C28.0389 19.2449 27.9413 18.9035 27.8137 18.6736C27.7012 18.4706 27.5648 18.3509 27.355 18.2775Z" fill="#49C074"/>
<path fill-rule="evenodd" clip-rule="evenodd" d="M6.41292 20.2551C6.82434 20.207 7.19683 20.5015 7.24491 20.9129C7.36559 21.9456 7.4577 22.9314 7.54322 23.8466C7.65724 25.0668 7.75954 26.1615 7.90217 27.0746C8.02694 27.8734 8.16706 28.4056 8.31801 28.6953C8.33253 28.7232 8.34559 28.7457 8.35693 28.7638C8.40398 28.7546 8.45188 28.75 8.49998 28.75H23.5C23.5392 28.75 23.5783 28.7531 23.6169 28.7592C23.6307 28.7405 23.6481 28.7145 23.6683 28.6788C23.8136 28.4232 23.9589 27.9455 24.0915 27.1943C24.293 26.0527 24.4309 24.5094 24.5959 22.6616C24.6452 22.1106 24.6968 21.5326 24.7533 20.93C24.7919 20.5176 25.1576 20.2146 25.57 20.2533C25.9824 20.2919 26.2854 20.6576 26.2467 21.07C26.1929 21.6437 26.143 22.203 26.0948 22.7431C25.9284 24.6081 25.7825 26.2439 25.5687 27.4551C25.4326 28.2258 25.2542 28.9243 24.9723 29.4202C24.8279 29.6742 24.6238 29.934 24.3272 30.1017C24.041 30.2635 23.7277 30.3061 23.4204 30.25H8.6058C8.28912 30.3273 7.95657 30.2975 7.65056 30.124C7.33304 29.9441 7.12685 29.6554 6.98774 29.3884C6.71308 28.8613 6.54605 28.1122 6.42014 27.3061C6.2735 26.3674 6.16158 25.1783 6.0415 23.9026C5.95546 22.9885 5.86524 22.0299 5.75505 21.0871C5.70697 20.6756 6.00151 20.3031 6.41292 20.2551Z" fill="#49C074"/>
<path fill-rule="evenodd" clip-rule="evenodd" d="M10.5 21.25C10.9142 21.25 11.25 21.5858 11.25 22V27C11.25 27.4142 10.9142 27.75 10.5 27.75C10.0858 27.75 9.75 27.4142 9.75 27V22C9.75 21.5858 10.0858 21.25 10.5 21.25Z" fill="#49C074"/>
<path fill-rule="evenodd" clip-rule="evenodd" d="M14.5 21.25C14.9142 21.25 15.25 21.5858 15.25 22V27C15.25 27.4142 14.9142 27.75 14.5 27.75C14.0858 27.75 13.75 27.4142 13.75 27V22C13.75 21.5858 14.0858 21.25 14.5 21.25Z" fill="#49C074"/>
<path fill-rule="evenodd" clip-rule="evenodd" d="M17.5 21.25C17.9142 21.25 18.25 21.5858 18.25 22V27C18.25 27.4142 17.9142 27.75 17.5 27.75C17.0858 27.75 16.75 27.4142 16.75 27V22C16.75 21.5858 17.0858 21.25 17.5 21.25Z" fill="#49C074"/>
<path fill-rule="evenodd" clip-rule="evenodd" d="M21.5 21.25C21.9142 21.25 22.25 21.5858 22.25 22V27C22.25 27.4142 21.9142 27.75 21.5 27.75C21.0858 27.75 20.75 27.4142 20.75 27V22C20.75 21.5858 21.0858 21.25 21.5 21.25Z" fill="#49C074"/>
<path fill-rule="evenodd" clip-rule="evenodd" d="M11.2709 13.1588C10.1091 14.5972 9.38826 16.822 9.74503 19.914C9.79251 20.3255 9.49742 20.6976 9.08594 20.7451C8.67445 20.7925 8.30239 20.4975 8.25491 20.086C7.8617 16.678 8.64082 14.0278 10.104 12.2162C11.5642 10.4085 13.6569 9.5 15.75 9.5C17.8431 9.5 19.9358 10.4085 21.3959 12.2162C22.8592 14.0278 23.6383 16.678 23.245 20.086C23.1975 20.4975 22.8255 20.7925 22.414 20.7451C22.0025 20.6976 21.7074 20.3255 21.7549 19.914C22.1117 16.822 21.3908 14.5972 20.229 13.1588C19.0642 11.7165 17.4069 11 15.75 11C14.0931 11 12.4358 11.7165 11.2709 13.1588Z" fill="#FE9148"/>
<path fill-rule="evenodd" clip-rule="evenodd" d="M4.73716 13.2885C4.86815 12.8955 5.29289 12.6832 5.68585 12.8142L7.26282 13.3398C7.65578 13.4708 7.86815 13.8955 7.73716 14.2885C7.60618 14.6815 7.18144 14.8938 6.78848 14.7628L5.21151 14.2372C4.81855 14.1062 4.60618 13.6815 4.73716 13.2885Z" fill="#FE9148"/>
<path fill-rule="evenodd" clip-rule="evenodd" d="M27.2628 13.2885C27.1318 12.8955 26.7071 12.6832 26.3141 12.8142L24.7371 13.3398C24.3442 13.4708 24.1318 13.8955 24.2628 14.2885C24.3938 14.6815 24.8185 14.8938 25.2115 14.7628L26.7885 14.2372C27.1814 14.1062 27.3938 13.6815 27.2628 13.2885Z" fill="#FE9148"/>
<path fill-rule="evenodd" clip-rule="evenodd" d="M7.12401 8.58398C7.46866 8.35421 7.93431 8.44734 8.16407 8.79199L9.33202 10.5439C9.56179 10.8886 9.46866 11.3542 9.12401 11.584C8.77936 11.8137 8.31371 11.7206 8.08395 11.376L6.916 9.62404C6.68623 9.27939 6.77936 8.81374 7.12401 8.58398Z" fill="#FE9148"/>
<path fill-rule="evenodd" clip-rule="evenodd" d="M24.8759 8.58398C24.5313 8.35421 24.0656 8.44734 23.8359 8.79199L22.6679 10.5439C22.4382 10.8886 22.5313 11.3542 22.8759 11.584C23.2206 11.8137 23.6862 11.7206 23.916 11.376L25.0839 9.62404C25.3137 9.27939 25.2206 8.81374 24.8759 8.58398Z" fill="#FE9148"/>
<path fill-rule="evenodd" clip-rule="evenodd" d="M11.2276 5.8181C11.6294 5.71764 12.0366 5.96196 12.1371 6.36381L12.7733 8.90859C12.8738 9.31044 12.6294 9.71764 12.2276 9.8181C11.8257 9.91856 11.4185 9.67424 11.3181 9.2724L10.6819 6.72761C10.5814 6.32576 10.8257 5.91856 11.2276 5.8181Z" fill="#FE9148"/>
<path fill-rule="evenodd" clip-rule="evenodd" d="M20.7724 5.8181C20.3706 5.71764 19.9634 5.96196 19.8629 6.36381L19.2267 8.90859C19.1262 9.31044 19.3706 9.71764 19.7724 9.8181C20.1743 9.91856 20.5815 9.67424 20.6819 9.2724L21.3181 6.72761C21.4186 6.32576 21.1743 5.91856 20.7724 5.8181Z" fill="#FE9148"/>
<path fill-rule="evenodd" clip-rule="evenodd" d="M16.25 4C16.6642 4 17 4.33579 17 4.75V8.25C17 8.66421 16.6642 9 16.25 9C15.8358 9 15.5 8.66421 15.5 8.25V4.75C15.5 4.33579 15.8358 4 16.25 4Z" fill="#FE9148"/>
</svg>
